<svg width="24" height="24" viewBox="0 0 24 24" fill="none" xmlns="http://www.w3.org/2000/svg">
<mask id="path-1-inside-1_4697_15226" fill="white">
<path d="M5.02328 5.74789C4.89692 5.30564 5.30564 4.89692 5.74789 5.02328L18.1502 8.56625C18.6081 8.69707 18.7272 9.29026 18.3553 9.58774L16.0164 12.1551L20.8114 16.9491L16.9491 20.8114L12.1551 16.0164L9.58774 18.3553C9.29026 18.7272 8.69707 18.6081 8.56625 18.1502L5.02328 5.74789Z"/>
</mask>
<path d="M5.02328 5.74789L6.36943 5.36334L6.36942 5.36328L5.02328 5.74789ZM5.74789 5.02328L5.36328 6.36942L5.36334 6.36943L5.74789 5.02328ZM18.1502 8.56625L18.5348 7.22012L18.5348 7.2201L18.1502 8.56625ZM18.3553 9.58774L17.4807 8.49452L17.3946 8.5634L17.3204 8.64492L18.3553 9.58774ZM16.0164 12.1551L14.9815 11.2123L14.0815 12.2003L15.0266 13.1452L16.0164 12.1551ZM20.8114 16.9491L21.8013 17.939L22.7914 16.949L21.8012 15.959L20.8114 16.9491ZM16.9491 20.8114L15.959 21.8012L16.949 22.7914L17.939 21.8013L16.9491 20.8114ZM12.1551 16.0164L13.1452 15.0266L12.2003 14.0815L11.2123 14.9815L12.1551 16.0164ZM9.58774 18.3553L8.64492 17.3204L8.5634 17.3946L8.49452 17.4807L9.58774 18.3553ZM8.56625 18.1502L7.2201 18.5348L7.22012 18.5348L8.56625 18.1502ZM5.02328 5.74789L6.36942 5.36328C6.5448 5.97712 5.97712 6.5448 5.36328 6.36942L5.74789 5.02328L6.1325 3.67715C4.63415 3.24905 3.24905 4.63415 3.67715 6.1325L5.02328 5.74789ZM5.74789 5.02328L5.36334 6.36943L17.7657 9.9124L18.1502 8.56625L18.5348 7.2201L6.13245 3.67713L5.74789 5.02328ZM18.1502 8.56625L17.7656 9.91238C17.1297 9.73069 16.965 8.90711 17.4807 8.49452L18.3553 9.58774L19.2299 10.681C20.4893 9.67341 20.0865 7.66346 18.5348 7.22012L18.1502 8.56625ZM18.3553 9.58774L17.3204 8.64492L14.9815 11.2123L16.0164 12.1551L17.0514 13.0979L19.3903 10.5306L18.3553 9.58774ZM16.0164 12.1551L15.0266 13.1452L19.8215 17.9391L20.8114 16.9491L21.8012 15.959L17.0063 11.1651L16.0164 12.1551ZM20.8114 16.9491L19.8214 15.9591L15.9591 19.8214L16.9491 20.8114L17.939 21.8013L21.8013 17.939L20.8114 16.9491ZM16.9491 20.8114L17.9391 19.8215L13.1452 15.0266L12.1551 16.0164L11.1651 17.0063L15.959 21.8012L16.9491 20.8114ZM12.1551 16.0164L11.2123 14.9815L8.64492 17.3204L9.58774 18.3553L10.5306 19.3903L13.0979 17.0514L12.1551 16.0164ZM9.58774 18.3553L8.49452 17.4807C8.90711 16.965 9.73069 17.1297 9.91238 17.7656L8.56625 18.1502L7.22012 18.5348C7.66346 20.0865 9.67341 20.4893 10.681 19.2299L9.58774 18.3553ZM8.56625 18.1502L9.9124 17.7657L6.36943 5.36334L5.02328 5.74789L3.67713 6.13245L7.2201 18.5348L8.56625 18.1502Z" fill="#8F8F8F" mask="url(#path-1-inside-1_4697_15226)"/>
</svg>
