<svg width="24" height="24" viewBox="0 0 24 24" fill="none" xmlns="http://www.w3.org/2000/svg">
<mask id="mask0_4697_15220" style="mask-type:alpha" maskUnits="userSpaceOnUse" x="0" y="0" width="24" height="24">
<rect width="24" height="24" fill="#D9D9D9"/>
</mask>
<g mask="url(#mask0_4697_15220)">
<path d="M9.32091 17.7C8.14141 17.7 7.14266 17.2686 6.32466 16.4058C5.50666 15.5429 5.09766 14.5122 5.09766 13.3135C5.09766 12.1148 5.50666 11.0857 6.32466 10.226C7.14266 9.36633 8.14141 8.9365 9.32091 8.9365H16.1919L13.6844 6.42875L14.6132 5.5L18.6997 9.5865L14.6132 13.673L13.6844 12.7442L16.1919 10.2365H9.32091C8.49391 10.2365 7.79999 10.5378 7.23916 11.1403C6.67816 11.7429 6.39766 12.4673 6.39766 13.3135C6.39766 14.1597 6.67816 14.8856 7.23916 15.4913C7.79999 16.0971 8.49391 16.4 9.32091 16.4H16.5977V17.7H9.32091Z" fill="#8F8F8F"/>
</g>
</svg>
