<svg width="24" height="24" viewBox="0 0 24 24" fill="none" xmlns="http://www.w3.org/2000/svg">
<mask id="mask0_4697_15216" style="mask-type:alpha" maskUnits="userSpaceOnUse" x="0" y="0" width="24" height="24">
<rect width="24" height="24" fill="#D9D9D9"/>
</mask>
<g mask="url(#mask0_4697_15216)">
<path d="M7.4018 17.7V16.4H14.6786C15.5056 16.4 16.1995 16.0971 16.7603 15.4913C17.3213 14.8856 17.6018 14.1597 17.6018 13.3135C17.6018 12.4673 17.3213 11.7429 16.7603 11.1403C16.1995 10.5377 15.5056 10.2365 14.6786 10.2365H7.80755L10.3151 12.7442L9.3863 13.673L5.2998 9.5865L9.3863 5.5L10.3151 6.42875L7.80755 8.9365H14.6786C15.8581 8.9365 16.8568 9.36633 17.6748 10.226C18.4928 11.0857 18.9018 12.1148 18.9018 13.3135C18.9018 14.5122 18.4928 15.5429 17.6748 16.4058C16.8568 17.2686 15.8581 17.7 14.6786 17.7H7.4018Z" fill="#8F8F8F"/>
</g>
</svg>
